<svg viewBox="0 0 90 90" xmlns="http://www.w3.org/2000/svg"><path d="m69.76 85.73 6.79-6.8a6.38 6.38 0 0 0 -.55-9.53l-10.67-8.28a6.36 6.36 0 0 0 -7.86 0l-2.36 1.88a6.36 6.36 0 0 1 -8.45-.49l-19-19a6.38 6.38 0 0 1 -.51-8.51l1.85-2.33a6.38 6.38 0 0 0 0-7.87l-8.22-10.63a6.36 6.36 0 0 0 -9.53-.59l-6.79 6.79c-4.68 4.63-4.66 17.81 21.42 43.92s39.58 25.71 43.88 21.44z" fill="#ff8898"/><ellipse cx="67.29" cy="22.76" fill="#ffeb97" rx="20.67" ry="20.69"/><g fill="#576065"><path d="m62 16.31c-.89 0-1.45.48-1.45 1.75v1.94h-2.68v-1.75c0-2.84 1.42-4.47 4.16-4.47s4.16 1.63 4.16 4.47c0 5.84-6.06 7.85-5.53 11h5.28v2.54h-8.07v-2.22c0-5.23 5.53-6.09 5.53-11.22 0-1.6-.55-2.04-1.4-2.04z"/><path d="m67.26 26 5.07-12h3v12h1.37v2.54h-1.32v3.22h-2.79v-3.23h-5.33zm5.33 0v-6.59l-2.77 6.59z"/><path d="m63.4 90a23.66 23.66 0 0 1 -8.12-1.64c-8.67-3.19-19-10.79-30.85-22.6-30.76-30.83-25.23-43.03-21.43-46.84l6.8-6.79a8.41 8.41 0 0 1 12.59.78l8.27 10.63a8.41 8.41 0 0 1 0 10.39l-1.9 2.37a4.34 4.34 0 0 0 .34 5.75l19 19a4.32 4.32 0 0 0 5.74.34l2.36-1.87a8.39 8.39 0 0 1 10.39 0l10.63 8.28a8.43 8.43 0 0 1 .78 12.58l-6.79 6.8c-1.03 1.03-3.43 2.82-7.81 2.82zm-47.66-76.25a4.26 4.26 0 0 0 -3 1.27l-6.84 6.79c-4.51 4.52-1.61 18 21.43 41 11.22 11.26 21.37 18.75 29.37 21.69 5.22 1.92 9.57 1.84 11.62-.21l6.79-6.8a4.33 4.33 0 0 0 -.41-6.49l-10.63-8.27a4.31 4.31 0 0 0 -5.34 0l-2.36 1.87a8.41 8.41 0 0 1 -11.16-.6l-19-19a8.43 8.43 0 0 1 -.65-11.17l1.87-2.37a4.32 4.32 0 0 0 0-5.34l-8.27-10.7a4.27 4.27 0 0 0 -3.16-1.66z"/><path d="m67.28 45.5a22.73 22.73 0 1 1 22.72-22.74 22.75 22.75 0 0 1 -22.72 22.74zm0-41.38a18.65 18.65 0 1 0 18.63 18.64 18.66 18.66 0 0 0 -18.63-18.64z"/></g></svg>